<?xml version="1.0" encoding="UTF-8"?>
<svg width="114px" height="32px" viewBox="0 0 114 32" version="1.1" xmlns="http://www.w3.org/2000/svg" xmlns:xlink="http://www.w3.org/1999/xlink">
    <!-- Generator: sketchtool 52.2 (67145) - http://www.bohemiancoding.com/sketch -->
    <title>85AC0A0F-F414-41AE-9D6B-B7584BED8927</title>
    <desc>Created with sketchtool.</desc>
    <defs>
        <polygon id="path-1" points="0 0 114 0 114 31.9796364 0 31.9796364"></polygon>
    </defs>
    <g id="Desktop" stroke="none" stroke-width="1" fill="none" fill-rule="evenodd">
        <g id="Homepage-Alt-01" transform="translate(-114.000000, -36.000000)">
            <g id="Header" transform="translate(114.000000, 36.000000)">
                <g id="Logo">
                    <mask id="mask-2" fill="white">
                        <use xlink:href="#path-1"></use>
                    </mask>
                    <g id="Clip-2"></g>
                    <path d="M11.6783452,15.8301091 L9.74786802,15.8301091 L9.74786802,10.7997091 L12.0267107,10.7997091 C13.7673807,10.7997091 15.8564162,11.0859636 15.8564162,13.3137455 C15.8558376,15.7346909 13.5139188,15.8301091 11.6783452,15.8301091 Z M12.596132,8.00232727 L5.15893401,8.00232727 L5.15893401,10.7706182 L6.55123858,10.7706182 L6.55123858,26.0765091 L9.74786802,26.0765091 L9.74786802,18.5960727 L12.0267107,18.5960727 C15.8245888,18.5960727 19.2110254,17.7687273 19.2110254,13.2503273 C19.2110254,9.24101818 16.0462234,8 12.596132,8 L12.596132,8.00232727 Z M102.767239,24.5486545 L102.957046,24.5486545 C103.051949,24.5486545 103.210508,24.5486545 103.210508,24.3898182 C103.210508,24.2309818 103.052528,24.2309818 102.957046,24.2309818 L102.767239,24.2309818 L102.767239,24.5486545 Z M102.42003,23.9441455 L102.894548,23.9441455 C103.241756,23.9441455 103.559452,24.0395636 103.559452,24.3898182 C103.561766,24.6085818 103.420569,24.8029091 103.212244,24.8669091 L103.591858,25.4714182 L103.17868,25.4714182 L102.831472,24.8989091 L102.736569,24.8989091 L102.736569,25.4714182 L102.356954,25.4714182 L102.42003,23.9441455 Z M102.958203,25.8216727 C103.569868,25.8391273 104.080264,25.3550545 104.097624,24.7400727 C104.115563,24.1250909 103.634102,23.6119273 103.021858,23.5938909 C102.409614,23.5764364 101.900376,24.0610909 101.881858,24.6760727 L101.881858,24.7080727 C101.88533,25.3079273 102.35869,25.7989818 102.954731,25.8216727 L102.958203,25.8216727 Z M102.958203,23.2762182 C103.744629,23.2762182 104.382335,23.9173818 104.382335,24.7080727 C104.382335,25.4987636 103.744629,26.1399273 102.958203,26.1399273 C102.171777,26.1399273 101.534071,25.4987636 101.534071,24.7080727 C101.531178,23.9208727 102.163675,23.2791273 102.946629,23.2762182 L102.958203,23.2762182 Z M91.8481218,16.4346182 L91.8481218,13.8251636 L94.348599,13.8251636 L94.348599,10.2935273 L97.3866701,10.2935273 L97.3866701,13.8571636 L100.743015,13.8571636 L100.743015,16.4666182 L97.3866701,16.4666182 L97.3866701,21.8123636 C97.3866701,23.0213818 97.7338782,23.8173091 99.0955127,23.8173091 C99.6684061,23.8464 100.238406,23.7143273 100.741279,23.4356364 L100.741279,26.0130909 C99.9745279,26.3092364 99.1568528,26.4500364 98.3357056,26.4267636 C95.1072487,26.4267636 94.3480203,24.9629091 94.3480203,22.0992 L94.3480203,16.4346182 L91.8475431,16.4346182 L91.8481218,16.4346182 Z M89.3788934,17.5168 C88.8065787,16.8075636 87.9732792,16.3601455 87.068802,16.2757818 C85.1279086,16.2391273 83.5261218,17.7914182 83.489665,19.7428364 C83.4879289,19.8173091 83.4890863,19.8923636 83.4925584,19.9668364 C83.4294822,21.9234909 84.9548832,23.5613091 86.9009848,23.6247273 C86.9565381,23.6270545 87.0126701,23.6276364 87.068802,23.6264727 C87.993533,23.6369455 88.8713909,23.2133818 89.4413909,22.4808727 L91.4667716,24.6766545 C90.2451777,25.7483636 88.6891066,26.3563636 87.068802,26.3947636 C83.3976548,26.3947636 80.4539086,23.8173091 80.4539086,19.9668364 C80.4539086,16.1163636 83.3970761,13.5389091 87.068802,13.5389091 C88.7417665,13.5144727 90.3487614,14.1952 91.4997563,15.4164364 L89.3794721,17.5168 L89.3788934,17.5168 Z M76.4025685,18.7258182 C76.3707411,16.9437091 75.2000711,15.8301091 73.3008426,15.8301091 C71.4970964,15.8301091 70.3889239,16.9757091 70.167868,18.7258182 L76.4025685,18.7258182 Z M70.1360406,21.0170182 C70.2726091,22.7060364 71.7123655,23.9842909 73.3957462,23.9127273 C74.6856244,23.9296 75.9031675,23.3117091 76.6554518,22.2580364 L78.8393909,23.9127273 C77.5975431,25.4987636 75.6878985,26.4064 73.6804569,26.3627636 C70.0093096,26.3627636 67.0655635,23.7853091 67.0655635,19.9348364 C67.0655635,16.0843636 70.008731,13.5069091 73.6804569,13.5069091 C77.0987208,13.5069091 79.3775635,15.8923636 79.3775635,20.1576727 L79.3775635,20.9850182 L70.1360406,20.9850182 L70.1360406,21.0170182 Z M59.4692284,16.2752 C57.5289137,16.2385455 55.9259695,17.7908364 55.8900914,19.7422545 C55.888934,19.8167273 55.8895127,19.8917818 55.8929848,19.9662545 C55.8571066,21.952 57.4299594,23.5909818 59.4049949,23.6264727 C61.3800305,23.6625455 63.0095939,22.0811636 63.0454721,20.0954182 C63.0460508,20.0523636 63.0460508,20.0093091 63.0454721,19.9662545 C63.1426904,18.0276364 61.6583756,16.3770182 59.7302132,16.2792727 C59.6428325,16.2746182 59.5560305,16.2734545 59.4686497,16.2757818 L59.4692284,16.2752 Z M52.9492386,13.8251636 L55.8293299,13.8251636 L55.8293299,15.6706909 L55.8924061,15.6706909 C56.8026701,14.2568727 58.3975127,13.4429091 60.0698985,13.5389091 C63.8359492,13.5389091 66.0829645,16.3392 66.0829645,19.9668364 C66.0829645,23.5944727 63.6779695,26.3924364 60.1966294,26.3924364 C58.596,26.4663273 57.0555533,25.7693091 56.0503858,24.5149091 L55.9873096,24.5149091 L55.9873096,31.8993455 L52.9492386,31.8993455 L52.9492386,13.8251636 Z M49.4360711,17.2299636 C48.9152589,16.4282182 48.0154112,15.9575273 47.0634822,15.9889455 C46.240599,15.9889455 45.2909848,16.3706182 45.2909848,17.2933818 C45.2909848,19.4891636 51.8740508,17.7070545 51.8740508,22.4802909 C51.8740508,25.376 49.1206904,26.4261818 46.6202132,26.4261818 C44.7528122,26.4261818 43.1070457,25.9490909 41.8750355,24.5486545 L43.9004162,22.6391273 C44.6914721,23.4984727 45.5143553,24.1349818 46.7805076,24.1349818 C47.666467,24.1349818 48.8058883,23.6893091 48.8058883,22.7351273 C48.8058883,20.2210909 42.2228223,22.1940364 42.2228223,17.5168 C42.2228223,14.7822545 44.6596447,13.5709091 47.1282944,13.5709091 C48.7422335,13.5709091 50.4846396,14.08 51.4643452,15.4484364 L49.4389645,17.2305455 L49.4360711,17.2299636 Z M34.6878274,23.6276364 C36.6240914,23.6677818 38.2258782,22.1224727 38.2658071,20.1762909 C38.2675431,20.1064727 38.2669645,20.0372364 38.2640711,19.968 C38.3306193,17.9968 36.794802,16.3456 34.8348122,16.2786909 C34.7856244,16.2769455 34.7370152,16.2763636 34.6878274,16.2769455 C32.7475127,16.2402909 31.1451472,17.7925818 31.1086904,19.744 C31.107533,19.8184727 31.1081117,19.8935273 31.1115838,19.968 C31.0490863,21.9246545 32.5756447,23.5613091 34.5217462,23.6247273 C34.5767208,23.6264727 34.6322741,23.6270545 34.6872487,23.6258909 L34.6878274,23.6276364 Z M34.6860914,13.5069091 C38.3572386,13.5069091 41.3009848,16.0843636 41.3009848,19.9348364 C41.3009848,23.7853091 38.3589746,26.3627636 34.6872487,26.3627636 C31.0172589,26.3924364 28.072934,23.8173091 28.072934,19.9668364 C28.072934,16.0849455 31.0161015,13.5086545 34.6878274,13.5086545 L34.6860914,13.5069091 Z M20.5084264,13.8251636 L23.5464975,13.8251636 L23.5464975,15.7661091 L23.6101523,15.7661091 C24.2617462,14.3610182 25.6766193,13.4749091 27.2182234,13.5069091 C27.5856853,13.5057455 27.9502538,13.5703273 28.2945685,13.6977455 L28.2945685,16.6568727 C27.8096345,16.5207273 27.3102335,16.4456727 26.8067817,16.4340364 C25.1338173,16.3101091 23.6778579,17.5738182 23.5551777,19.2558545 C23.5488122,19.3442909 23.5459188,19.4321455 23.5470761,19.5205818 L23.5470761,26.0765091 L20.5084264,26.0765091 L20.5084264,13.8251636 Z M0,22.1306182 C0.0254619289,24.3112727 1.78696447,26.0677818 3.95585787,26.0765091 L3.95585787,23.0510545 C3.45009137,23.0504727 3.03980711,22.6391273 3.03807107,22.1306182 L3.03807107,12.8069818 L0,12.8069818 L0,22.1306182 Z" id="Fill-1" fill="#FFFFFF" mask="url(#mask-2)"></path>
                    <path d="M109.093371,9.13163636 C108.272223,9.1328 107.606741,8.46429091 107.605584,7.63927273 L107.605584,7.63578182 L107.605584,3.08654545 L107.067411,3.08654545 L107.067411,2.06836364 L109.852599,2.06836364 C111.15,2.06836364 112.321249,2.51403636 112.321249,4.04130909 C112.321249,5.72858182 111.055096,6.04625455 109.630964,6.04625455 L108.776254,6.04625455 L108.776254,7.63752727 C108.775675,7.7952 108.901827,7.9232 109.05865,7.92378182 L109.060964,7.92378182 L112.510477,7.92378182 C112.667299,7.92436364 112.794609,7.79694545 112.795188,7.63985455 L112.795188,7.63752727 L112.795188,1.49585455 C112.795766,1.33818182 112.669614,1.21018182 112.512792,1.2096 L112.510477,1.2096 L104.473766,1.2096 C104.316944,1.20901818 104.190213,1.33585455 104.189056,1.49352727 L104.189056,1.49585455 L104.189056,9.35505455 C104.188477,9.51272727 104.314629,9.64072727 104.471452,9.64130909 L104.473766,9.64130909 L107.575492,9.64130909 L107.575492,10.8509091 L104.473766,10.8509091 C103.653198,10.8514909 102.986558,10.1835636 102.98598,9.35854545 L102.98598,9.35505455 L102.98598,1.49585455 C102.985401,0.670836364 103.649726,0.00116363636 104.470294,-1.58351076e-13 L104.473766,-1.58351076e-13 L112.512792,-1.58351076e-13 C113.33336,-0.000581818182 113.999421,0.667927273 114,1.49294545 L114,1.49585455 L114,7.60494545 C114.001157,8.42996364 113.336254,9.09963636 112.515685,9.1008 L112.512213,9.1008 L109.093949,9.1008 L109.093371,9.13163636 Z M109.662792,3.08596364 L108.808081,3.08596364 L108.808081,4.96407273 L109.502497,4.96407273 C110.196914,4.96407273 111.085188,4.93207273 111.085188,4.00930909 C111.085188,3.21396364 110.294132,3.08654545 109.661056,3.08654545 L109.662792,3.08596364 Z M105.105107,3.08596364 L105.105107,2.06836364 L106.307604,2.06836364 L106.307604,3.08596364 L105.105107,3.08596364 Z M106.657706,8.65512727 C105.818619,8.672 105.124782,8.00232727 105.106843,7.15927273 L105.106843,3.85047273 L106.30934,3.85047273 L106.30934,7.15985455 C106.311655,7.35185455 106.465584,7.50661818 106.656548,7.50894545 L106.656548,8.65454545 L106.657706,8.65512727 Z" id="Combined-Shape" fill="#FFFFFF" mask="url(#mask-2)"></path>
                    <polygon id="Path" fill="#FFFFFF" mask="url(#mask-2)" points="0 11 3 11 3 8 0 8"></polygon>
                </g>
            </g>
        </g>
    </g>
</svg>