<svg xmlns="http://www.w3.org/2000/svg" viewBox="0 0 171.26 31.92"><defs><style>.cls-1{fill:#fff;}</style></defs><title>Logo-BlueBird-White</title><g id="Layer_2" data-name="Layer 2"><g id="Layer_1-2" data-name="Layer 1"><path class="cls-1" d="M68.44,19.56c0,5.16-3.24,8.69-8.17,8.69a6.78,6.78,0,0,1-6.09-3.11v3H50.45V4.06h3.73v9.79a6.74,6.74,0,0,1,6-3.11C65.1,10.74,68.44,14.31,68.44,19.56Zm-3.76-.13a5.23,5.23,0,0,0-5.25-5.58c-3.08,0-5.25,2.33-5.25,5.58s2.17,5.64,5.25,5.64S64.68,22.74,64.68,19.43Z"/><path class="cls-1" d="M74.6,4.19V28.25H70.87V4.19Z"/><path class="cls-1" d="M94.31,10.87V28.12H90.59V24.75c-1.17,2.4-3.34,3.47-6.16,3.5-4,0-6.32-2.53-6.32-6.65V10.87h3.73v9.69c0,2.59,1.52,4.18,4,4.18,3-.07,4.73-2.37,4.73-5.38V10.87Z"/><path class="cls-1" d="M113.38,20.92h-13a5.25,5.25,0,0,0,5.35,4.31,6.71,6.71,0,0,0,4.86-2l2,2.11a9.39,9.39,0,0,1-7.13,2.92c-5.32,0-8.82-3.53-8.82-8.72a8.37,8.37,0,0,1,8.72-8.78C111.37,10.74,113.83,14.7,113.38,20.92Zm-3.24-2.72a4.43,4.43,0,0,0-4.8-4.47,4.88,4.88,0,0,0-5.06,4.47Z"/><path class="cls-1" d="M133.81,19.56c0,5.16-3.24,8.69-8.17,8.69a6.78,6.78,0,0,1-6.09-3.11v3h-3.73V4.06h3.73v9.79a6.74,6.74,0,0,1,6-3.11C130.47,10.74,133.81,14.31,133.81,19.56ZM130,19.43a5.23,5.23,0,0,0-5.25-5.58c-3.08,0-5.25,2.33-5.25,5.58s2.17,5.64,5.25,5.64S130,22.74,130,19.43Z"/><path class="cls-1" d="M140.1,6.07a2.17,2.17,0,1,1-4.34,0,2.17,2.17,0,1,1,4.34,0Z"/><rect class="cls-1" x="136.08" y="11" width="3.7" height="17.25"/><path class="cls-1" d="M153.36,10.87v3.57c-3.47-.2-5.67,1.85-6,4.8v9h-3.73V11h3.73v3.44A6.27,6.27,0,0,1,153.36,10.87Z"/><path class="cls-1" d="M171.26,4V28.09h-3.73v-3a6.68,6.68,0,0,1-6.06,3.11c-5,0-8.27-3.6-8.27-8.85s3.34-8.72,8.2-8.72a6.82,6.82,0,0,1,6.13,3.15V4Zm-3.73,15.5c0-3.34-2.17-5.67-5.28-5.67s-5.28,2.37-5.32,5.67,2.17,5.61,5.32,5.61S167.53,22.8,167.53,19.53Z"/><path class="cls-1" d="M20.85,12.85a1.61,1.61,0,0,1-1.61-1.61,8,8,0,0,0-16,0,1.61,1.61,0,0,1-3.23,0,11.23,11.23,0,0,1,22.47,0A1.61,1.61,0,0,1,20.85,12.85Z"/><path class="cls-1" d="M16.88,28.1A16.9,16.9,0,0,1,0,11.21a1.61,1.61,0,0,1,3.23,0,13.65,13.65,0,1,0,27.31,0,1.61,1.61,0,0,1,3.23,0A16.9,16.9,0,0,1,16.88,28.1Z"/><path class="cls-1" d="M20.7,31.92A20.72,20.72,0,0,1,0,11.22a1.61,1.61,0,0,1,3.23,0,17.47,17.47,0,1,0,34.94,0,1.61,1.61,0,0,1,3.23,0A20.72,20.72,0,0,1,20.7,31.92Z"/><path class="cls-1" d="M12.52,13.65a3.07,3.07,0,1,1,3.07-3.07A3.07,3.07,0,0,1,12.52,13.65Zm0-3.92a.86.86,0,1,0,.86.86A.86.86,0,0,0,12.52,9.72Z"/></g></g></svg>