<svg class="logo" width="182" height="20" viewBox="0 0 182 20" fill="none" xmlns="http://www.w3.org/2000/svg">
<path class="logo-animate" d="M8.378 0C3.8646 0 0.761636 2.42595 0.761636 6.26234C0.761636 9.30889 2.53879 11.086 6.31876 11.9041L9.47814 12.6093C11.1142 12.9196 11.5092 13.5966 11.5092 14.2454C11.5092 15.2891 10.5783 15.9379 8.80113 15.9379C6.54443 15.9379 5.07757 14.9224 4.76728 13.2299H0C0.45134 17.969 4.34415 20 8.66008 20C13.4556 20 16.6149 17.6023 16.6149 13.7659C16.6149 10.4654 14.33 9.05501 10.8322 8.29337L8.15233 7.67278C6.71368 7.36248 5.95204 6.91114 5.95204 5.86742C5.95204 4.62623 7.05219 3.94923 8.68829 3.94923C10.6347 3.94923 11.5374 4.93653 11.7913 6.37518H16.5867C16.1072 1.21298 11.481 0 8.378 0Z" fill="url(#paint0_linear)"/>
<path class="logo-animate" d="M29.8984 4.56982H39.6304V0.423132H25.1311V19.6051H39.6304V15.4584H29.8984V12.1298H38.3892V8.0677H29.8984V4.56982Z" fill="url(#paint1_linear)"/>
<path class="logo-animate" d="M57.143 0.0282101C51.3602 0.0282101 46.9878 4.42877 46.9878 10.0141C46.9878 15.5994 51.3602 20 57.143 20C62.954 20 67.3263 15.5994 67.3263 10.0141C67.3263 4.42877 62.954 0.0282101 57.143 0.0282101ZM57.143 15.5712C54.04 15.5712 51.8115 13.0324 51.8115 10.0141C51.8115 6.99577 54.04 4.45698 57.143 4.45698C60.2459 4.45698 62.4744 6.99577 62.4744 10.0141C62.4744 13.0324 60.2459 15.5712 57.143 15.5712Z" fill="url(#paint2_linear)"/>
<path class="logo-animate" d="M95.4396 8.82934H85.1717V12.5811L90.6724 12.6375C89.7415 14.4711 88.049 15.5712 85.8205 15.5712C82.4072 15.5712 80.2351 13.1171 80.2351 10.0987C80.2351 6.71368 82.4918 4.40056 85.7641 4.40056C87.4848 4.40056 89.403 5.02116 90.2492 7.24965H95.2422C94.4241 2.67983 90.3621 0.0282101 85.6794 0.0282101C79.812 0.0282101 75.4114 4.23131 75.4114 10.2116C75.4114 15.7123 79.6145 20 85.623 20C88.3028 20 90.3057 18.9845 91.6879 17.292L91.8853 19.6051H95.4396V8.82934Z" fill="url(#paint3_linear)"/>
<path class="logo-animate" d="M109.605 0.423132H104.837V19.6051H109.605V0.423132Z" fill="url(#paint4_linear)"/>
<path class="logo-animate" d="M126.362 14.048L130.481 19.6051H136.235L131.299 13.1171C133.584 11.9605 134.966 9.84485 134.966 7.16502C134.966 3.01834 131.778 0.423132 127.039 0.423132H118.633V19.6051H123.4V14.048H126.362ZM123.4 9.76023V4.62623H126.927C128.76 4.62623 130.227 5.61354 130.227 7.16502C130.227 8.74471 128.76 9.76023 126.927 9.76023H123.4Z" fill="url(#paint5_linear)"/>
<path class="logo-animate" d="M157.914 15.402H148.436V0.423132H143.668V19.6051H157.914V15.402Z" fill="url(#paint6_linear)"/>
<path class="logo-animate" d="M173.267 0C168.754 0 165.651 2.42595 165.651 6.26234C165.651 9.30889 167.428 11.086 171.208 11.9041L174.367 12.6093C176.003 12.9196 176.398 13.5966 176.398 14.2454C176.398 15.2891 175.467 15.9379 173.69 15.9379C171.433 15.9379 169.966 14.9224 169.656 13.2299H164.889C165.34 17.969 169.233 20 173.549 20C178.344 20 181.504 17.6023 181.504 13.7659C181.504 10.4654 179.219 9.05501 175.721 8.29337L173.041 7.67278C171.603 7.36248 170.841 6.91114 170.841 5.86742C170.841 4.62623 171.941 3.94923 173.577 3.94923C175.524 3.94923 176.426 4.93653 176.68 6.37518H181.476C180.996 1.21298 176.37 0 173.267 0Z" fill="url(#paint7_linear)"/>
<defs>
<linearGradient id="paint0_linear" x1="181.24" y1="10.0058" x2="172.209" y2="-29.4326" gradientUnits="userSpaceOnUse">
<stop stop-color="#AD2F82"/>
<stop offset="1" stop-color="#F95555"/>
</linearGradient>
<linearGradient id="paint1_linear" x1="181.24" y1="10.0058" x2="172.209" y2="-29.4326" gradientUnits="userSpaceOnUse">
<stop stop-color="#AD2F82"/>
<stop offset="1" stop-color="#F95555"/>
</linearGradient>
<linearGradient id="paint2_linear" x1="181.24" y1="10.0058" x2="172.209" y2="-29.4326" gradientUnits="userSpaceOnUse">
<stop stop-color="#AD2F82"/>
<stop offset="1" stop-color="#F95555"/>
</linearGradient>
<linearGradient id="paint3_linear" x1="181.24" y1="10.0058" x2="172.209" y2="-29.4326" gradientUnits="userSpaceOnUse">
<stop stop-color="#AD2F82"/>
<stop offset="1" stop-color="#F95555"/>
</linearGradient>
<linearGradient id="paint4_linear" x1="181.24" y1="10.0058" x2="172.209" y2="-29.4326" gradientUnits="userSpaceOnUse">
<stop stop-color="#AD2F82"/>
<stop offset="1" stop-color="#F95555"/>
</linearGradient>
<linearGradient id="paint5_linear" x1="181.24" y1="10.0058" x2="172.209" y2="-29.4326" gradientUnits="userSpaceOnUse">
<stop stop-color="#AD2F82"/>
<stop offset="1" stop-color="#F95555"/>
</linearGradient>
<linearGradient id="paint6_linear" x1="181.24" y1="10.0058" x2="172.209" y2="-29.4326" gradientUnits="userSpaceOnUse">
<stop stop-color="#AD2F82"/>
<stop offset="1" stop-color="#F95555"/>
</linearGradient>
<linearGradient id="paint7_linear" x1="181.24" y1="10.0058" x2="172.209" y2="-29.4326" gradientUnits="userSpaceOnUse">
<stop stop-color="#AD2F82"/>
<stop offset="1" stop-color="#F95555"/>
</linearGradient>
</defs>
</svg>
