<svg width="263" height="254" viewBox="0 0 263 254" fill="none" xmlns="http://www.w3.org/2000/svg">
<circle cx="114" cy="2" r="2" fill="#EC9BDA"/>
<circle cx="103" cy="102" r="3" fill="#FFDD63"/>
<circle cx="259" cy="27" r="4" fill="#6070FF"/>
<circle cx="128" cy="187" r="4" fill="#6070FF"/>
<path fill-rule="evenodd" clip-rule="evenodd" d="M255.245 159.5L252.647 158L250.397 161.897L246.5 159.647L245 162.245L248.897 164.495L246.647 168.392L249.245 169.892L251.495 165.995L255.392 168.245L256.892 165.647L252.995 163.397L255.245 159.5Z" fill="#F16565"/>
<path d="M8.80619 237L4.86696 237.695L5.90885 243.603L0 244.645L0.694593 248.585L6.60344 247.543L7.64533 253.452L11.5846 252.757L10.5427 246.848L16.4515 245.806L15.7569 241.867L9.84808 242.909L8.80619 237Z" fill="#EC9BDA"/>
<path d="M228.626 226.823L225.562 229.394L229.419 233.99L224.823 237.847L227.394 240.911L231.99 237.054L235.847 241.651L238.911 239.079L235.054 234.483L239.651 230.626L237.079 227.562L232.483 231.419L228.626 226.823Z" fill="#4FD2B3"/>
</svg>
