<?xml version="1.0" encoding="utf-8"?>
<!-- Generator: Adobe Illustrator 25.0.1, SVG Export Plug-In . SVG Version: 6.00 Build 0)  -->
<svg version="1.1" id="Layer_1" xmlns="http://www.w3.org/2000/svg" xmlns:xlink="http://www.w3.org/1999/xlink" x="0px" y="0px"
	 viewBox="0 0 1166.1 308.6" style="enable-background:new 0 0 1166.1 308.6;" xml:space="preserve">
<style type="text/css">
	.st0{fill:#FFFFFF;}
</style>
<g id="Layer_2_1_">
	<g id="Layer_1-2">
		<g>
			<path class="st0" d="M440.2,125.8c-11.2,0-19.3-2.1-24.5-6.4s-7.7-11-7.7-20c0-9.2,2.6-16,7.7-20.1s13.3-6.3,24.5-6.3
				c11.2,0,19.3,2.1,24.3,6.3s7.6,10.9,7.6,20.1c0,9-2.5,15.7-7.6,20C459.4,123.6,451.3,125.8,440.2,125.8z"/>
			<g>
				<path class="st0" d="M190.5,76.7v142c0,30.1-8,52.6-24,67.5c-16,14.9-39.8,22.4-71.4,22.4c-31.4,0-55.1-7.5-71.1-22.4
					C8,271.2,0,248.7,0,218.6v-142h55.8v142.9c0,15.3,3.3,26.6,9.8,34s16.4,11.1,29.5,11.1c13.3,0,23.3-3.7,29.8-11.1
					c6.6-7.4,9.8-18.8,9.8-34V76.7H190.5z"/>
				<path class="st0" d="M378.3,198v107.3h-55.1v-92.8c0-11.2-2.1-18.9-6.3-23.1c-4.2-4.2-9.6-6.3-16.3-6.3c-5,0-9.9,1.2-14.3,3.5
					c-4.4,2.4-7.9,6.3-10.6,11.8c-2.7,5.5-4,12.6-4,21.4v85.4h-55.1V144.2h49.6l1.5,32.7c1.8-4.3,4-8.4,6.5-12.2
					c5.1-7.6,12.2-13.8,20.5-17.7c8.3-4,17.7-6,28.2-6c11.2,0,20.9,2.1,29.2,6.4c8.2,4.2,15,10.9,19.4,19
					C375.9,174.8,378.2,185.3,378.3,198z"/>
				<rect x="411.2" y="144.2" class="st0" width="55.1" height="161.2"/>
				<polygon class="st0" points="682.6,305.3 621,305.3 582.4,239.3 556.2,268.6 556.2,305.3 501.1,305.3 501.1,57.7 556.2,0 
					556.2,211.6 617.4,144.2 678.7,144.2 619.3,207.5 				"/>
				<path class="st0" d="M762.2,140.9c17,0,31.9,3.3,44.6,9.8c12.6,6.4,23,16.4,30,28.7c7.2,12.6,10.8,27.7,10.8,45.3
					s-3.6,32.7-10.8,45.3c-6.9,12.3-17.4,22.3-30,28.7c-12.8,6.6-27.7,9.8-44.6,9.8c-16.8,0-31.5-3.3-44.3-9.8
					c-12.6-6.4-23-16.4-30-28.7c-7.2-12.6-10.8-27.7-10.8-45.3s3.6-32.7,10.8-45.3c6.9-12.3,17.4-22.3,30-28.7
					C730.6,144.2,745.4,140.9,762.2,140.9z M762.2,179.9c-5.7-0.2-11.3,1.5-16,4.7c-4.4,3.1-7.8,8-10.2,14.5
					c-2.4,6.6-3.5,15.1-3.5,25.6c0,10.5,1.2,19.1,3.5,25.6c2.4,6.6,5.7,11.4,10.2,14.5c4.7,3.2,10.3,4.8,16,4.7
					c6.4,0,11.9-1.6,16.3-4.7c4.4-3.1,7.8-8,10.2-14.5c2.4-6.6,3.5-15.1,3.5-25.6c0-10.5-1.2-19.1-3.5-25.6
					c-2.4-6.6-5.8-11.4-10.2-14.5C774.1,181.5,768.6,179.9,762.2,179.9z"/>
				<path class="st0" d="M873.7,305.3V144.2h49L925,179c3.9-12,9.8-21.4,17.9-28c8.1-6.7,18.4-10,31.1-10c3.5-0.1,7,0.3,10.5,1
					c2.3,0.4,4.6,1.3,6.6,2.6l-5.5,45.5c-2.7-1-5.4-1.7-8.2-2.1c-3.9-0.6-7.8-0.8-11.8-0.8c-6.3,0-12.4,1.4-18.1,4.2
					c-5.6,2.8-10.2,7-13.5,12.3c-3.4,5.4-5.2,12.3-5.2,20.6v81.2L873.7,305.3z"/>
				<path class="st0" d="M1165.9,198v107.3h-55.1v-92.8c0-11.2-2.1-18.9-6.3-23.1c-4.2-4.2-9.6-6.3-16.3-6.3c-5,0-9.9,1.2-14.3,3.5
					c-4.4,2.4-8,6.3-10.6,11.8c-2.7,5.5-4,12.6-4,21.4v85.4h-55.1V144.2h49.6l1.5,32.7c1.8-4.3,3.9-8.4,6.5-12.2
					c5.1-7.6,12.2-13.8,20.5-17.7c8.3-4,17.7-6,28.2-6c11.2,0,20.9,2.1,29.2,6.4c8.2,4.2,15,10.9,19.3,19
					C1163.6,174.8,1165.9,185.3,1165.9,198z"/>
				<path class="st0" d="M873.5,305.3V144.2h49l2.3,34.8c3.9-12,9.8-21.4,17.9-28c8.1-6.7,18.4-10,31.1-10c3.5-0.1,7,0.3,10.5,1
					c2.3,0.4,4.6,1.3,6.6,2.6l-5.5,45.5c-2.7-1-5.4-1.7-8.2-2.1c-3.9-0.6-7.8-0.8-11.8-0.8c-6.3,0-12.4,1.4-18.1,4.2
					c-5.6,2.8-10.2,7-13.5,12.3c-3.4,5.4-5.2,12.3-5.2,20.6v81.2L873.5,305.3z"/>
				<path class="st0" d="M1165.7,198v107.3h-55.1v-92.8c0-11.2-2.1-18.9-6.3-23.1c-4.2-4.2-9.6-6.3-16.3-6.3c-5,0-9.9,1.2-14.3,3.5
					c-4.4,2.4-8,6.3-10.6,11.8c-2.7,5.5-4,12.6-4,21.4v85.4h-55.1V144.2h49.6l1.5,32.7c1.8-4.3,3.9-8.4,6.5-12.2
					c5.1-7.6,12.2-13.8,20.5-17.7c8.3-4,17.7-6,28.2-6c11.2,0,20.9,2.1,29.2,6.4c8.2,4.2,15,10.9,19.3,19
					C1163.4,174.8,1165.7,185.3,1165.7,198z"/>
				<path class="st0" d="M873.3,305.3V144.2h49l2.3,34.8c3.9-12,9.8-21.4,17.9-28s18.4-10,31.1-10c3.5-0.1,7,0.3,10.5,1
					c2.3,0.4,4.6,1.3,6.6,2.6l-5.5,45.5c-2.7-1-5.4-1.7-8.2-2.1c-3.9-0.6-7.8-0.8-11.8-0.8c-6.3,0-12.4,1.4-18.1,4.2
					c-5.6,2.8-10.2,7-13.5,12.3c-3.4,5.4-5.2,12.3-5.2,20.6v81.2L873.3,305.3z"/>
				<path class="st0" d="M1166.1,198v107.3H1111v-92.8c0-11.2-2.1-18.9-6.3-23.1c-4.2-4.2-9.6-6.3-16.3-6.3c-5,0-9.9,1.2-14.3,3.5
					c-4.4,2.4-8,6.3-10.6,11.8c-2.7,5.5-4,12.6-4,21.4v85.4h-55.1V144.2h49.6l1.5,32.7c1.8-4.3,3.9-8.4,6.5-12.2
					c5.1-7.6,12.2-13.8,20.5-17.7c8.3-4,17.7-6,28.2-6c11.2,0,20.9,2.1,29.2,6.4c8.2,4.2,15,10.9,19.3,19
					C1163.8,174.8,1166.1,185.3,1166.1,198z"/>
			</g>
		</g>
	</g>
</g>
</svg>
